<svg version="1.2" xmlns="http://www.w3.org/2000/svg" viewBox="0 0 1080 1080" width="256" height="256">
	<title>candy-heart-template</title>
	<style>
		.s0 { fill: #1e1018 } 
		.s1 { fill: #d491b7 } 
	</style>
	<g>
		<path class="s0" d="m751.2 308.1c-38.1-25.6-75.6-34.5-111.3-25.6-50.6 12.5-82.7 54.8-94 73.2-30.4-17.8-138.6-72.6-203.5 6.6-1.8 2.4-4.2 4.7-5.9 7.7 0 0 0 0 0 0.6-4.2 6-7.8 12.5-10.8 19-8.3 15.5-19.6 35.1-23.8 45.3-26.1 63-28.5 114.2-8.3 160.6 32.7 75 128.5 139.8 301.1 203.5 3.6 1.2 7.1 1.8 11.3 1.8 10.7 0 20.2-5.4 26.2-14.3l42.2-60.7c1.2-1.8 3-3 4.2-4.7 48.2-75.6 197.5-327.9 72.6-413zm-318.4 29.8c55.4 0 110.1 36.3 111.3 36.9 2.4 1.2 4.8 1.8 7.1 1.2 2.4-0.6 4.8-2.4 6-4.2 0.6-0.6 32.7-58.9 87.5-72.6 30.9-7.7 63 0.6 96.9 23.2 107.7 73.2-25.5 305.2-70.2 376l-10.1 14.9c-3.5 3-8.9 4.2-13.7 2.4-172.5-63.7-285-152.3-309.4-242.8-7.1-27.3-5.9-52.9 3.6-75.5 5.4-9.5 9.5-17.3 10.7-19.1 1.2-1.7 3-4.1 4.8-5.9 20.2-25.6 47.6-34.5 75.5-34.5zm184.5 438.5c-3.6 5.3-10.7 7.7-16.7 5.3-167.8-62.4-260-123.7-290.9-193.9-17.3-39.9-15.5-83.9 5.3-138.1 0.6 9.6 2.4 19.1 4.8 28.6 26.2 95.8 142.8 189.2 320.7 254.7q2.7 0.9 5.4 1.7z"/>
	</g>
	<g>
		<path class="s1" d="m432.8 337.9c55.3 0 110.1 36.3 111.3 36.9 2.3 1.2 4.7 1.8 7.1 1.2 2.4-0.6 4.8-2.4 5.9-4.2 0.6-0.6 32.8-58.9 87.5-72.6 31-7.7 63.1 0.6 97 23.2 107.7 73.2-25.6 305.3-70.2 376.1l-10.1 14.8c-3.6 3-9 4.2-13.7 2.4-172.6-63.7-285-152.3-309.4-242.7-7.2-27.4-6-53 3.6-75.6 5.3-9.5 9.5-17.3 10.7-19.1 1.2-1.7 2.9-4.1 4.7-5.9 20.3-25.6 47.6-34.5 75.6-34.5z"/>
	</g>
	<g>
		<path class="s1" d="m617.3 776.2c-3.6 5.4-10.7 7.7-16.7 5.4-167.8-62.5-260-123.8-290.9-194-17.3-39.9-15.5-83.9 5.3-138 0.6 9.5 2.4 19 4.8 28.5 26.2 95.8 142.8 189.2 320.7 254.7q2.7 0.9 5.3 1.8z"/>
	</g>
	<g id="789d1203-1f01-45df-be51-d41e7956280e">
		<path id="YES" class="s0" aria-label="YES"  d="m551.9 550l-9.6 2-7.2-34.1-24.1-44.1 9.5-2 16.4 31h0.2l1.2-34.7 9.5-2.1-3.1 49.9zm44.9-9.5l-24.5 5.2-17.1-81.2 24.2-5.1 1.7 7.9-14.7 3.1 5.8 27.8 14-2.9 1.7 7.9-14 2.9 6.3 29.7 14.9-3.2zm23.7-4q-5 1-8.4-0.1-3.5-1.1-5.9-4.1-2.3-2.9-3.9-7.2-1.5-4.3-2.7-9.7l-1.6-7.9 9.2-2 1.8 8.3q1.8 8.5 3.8 12 2 3.3 6 2.5 2.8-0.6 3.9-2.2 1-1.6 0.8-4.6-0.3-3-1.3-7.7-1.1-5.5-3.9-9-2.7-3.5-7.1-6.3l-6.4-4.2q-2.8-1.9-5.6-4.2-2.8-2.3-5-5.6-2.2-3.2-3.2-7.8-1.3-6.1-0.9-10.9 0.3-4.7 3.2-7.9 2.9-3.2 9.2-4.5 4.9-1 8.2 0.1 3.4 1 5.6 3.9 2.1 2.8 3.5 7.1 1.4 4.2 2.5 9.4l1.1 4.8-9.2 2-1.1-5.5q-1.1-4.9-2.2-8.1-1-3.2-2.6-4.7-1.5-1.4-4.1-0.8-2.3 0.5-3.5 1.9-1.2 1.4-1.4 3.9-0.1 2.5 0.7 6.2 0.6 3.2 1.9 5.2 1.2 1.9 3.1 3.4 2 1.4 4.9 3.4l6.7 4.7q5.4 3.6 9.4 8.7 4 5.1 5.5 12.5 1.5 6.8 1.1 11.9-0.2 5.1-3 8.5-2.9 3.2-9.1 4.6z"/>
	</g>
</svg>